<svg width="575" height="160" viewBox="0 0 575 160" fill="none" xmlns="http://www.w3.org/2000/svg">
<path d="M238.687 117.712C252.046 117.712 263.734 111.16 269.996 100.864L255.594 92.544C252.463 98.16 246.097 101.488 238.687 101.488C225.746 101.488 217.397 92.856 217.397 79.856C217.397 66.856 225.746 58.224 238.687 58.224C246.097 58.224 252.359 61.552 255.594 67.168L269.996 58.848C263.63 48.552 251.941 42 238.687 42C216.667 42 200.699 58.432 200.699 79.856C200.699 101.28 216.667 117.712 238.687 117.712Z" fill="#212121"/>
<path d="M282.839 43.456V116.256H299.537V43.456H282.839Z" fill="#212121"/>
<path d="M333.805 100.24V87.344H359.896V71.536H333.805V59.472H362.505V43.456H317.107V116.256H363.027V100.24H333.805Z" fill="#212121"/>
<path d="M406.687 43.456H377.465V116.256H406.687C426.829 116.256 442.17 100.448 442.17 79.856C442.17 59.264 426.829 43.456 406.687 43.456ZM406.687 100.24H394.163V59.472H406.687C418.167 59.472 426.099 67.376 426.099 79.856C426.099 92.336 418.167 100.24 406.687 100.24Z" fill="#212121"/>
<path d="M473.275 100.24V87.344H499.365V71.536H473.275V59.472H501.974V43.456H456.576V116.256H502.496V100.24H473.275Z" fill="#212121"/>
<path d="M557.636 43.456V82.976L529.458 43.456H516.935V116.256H533.633V76.736L561.811 116.256H574.335V43.456H557.636Z" fill="#212121"/>
<ellipse cx="145.505" cy="80" rx="15.0524" ry="15" fill="black"/>
<path fill-rule="evenodd" clip-rule="evenodd" d="M80.2514 28.9764C108.291 28.8282 80.177 28.9764 80.3258 28.9764C93.639 28.9764 106.209 34.0157 115.803 43.2052C118.629 45.8731 122.274 47.2811 125.918 47.2811C129.711 47.2811 133.579 45.799 136.405 42.8346C141.983 37.0542 141.834 27.9389 136.033 22.3807C121.158 8.15192 101.746 0.222325 81.1439 0.0741084C80.8464 0.0741084 80.6233 0 80.3258 0C36.0722 0 0 35.8685 0 79.8888C0 123.02 34.3616 158.518 78.5407 160C79.0614 160 79.4333 160 80.4001 160C100.928 160 120.414 152.293 135.364 138.36C141.239 132.876 141.537 123.687 136.033 117.906C130.529 112.052 121.307 111.755 115.431 117.239C106.432 125.614 94.829 130.505 82.557 130.95C81.772 130.95 80.2814 130.95 80.2514 130.95C51.9886 130.95 29.0809 107.976 29.0809 79.8147C29.0809 51.95 52.2117 29.1246 80.2514 28.9764Z" fill="black"/>
</svg>
